# xmcd
#
# Track frame offsets:
#	150
#	12516
#	26853
#	49084
#	64236
#	79003
#	91980
#	104977
#	119527
#	134229
#	146119
#	159483
#	175522
#	188199
#	202336
#	215366
#
# Disc length: 3057
#
# Revision: 2
# Processed by: cddbd v1.5.1PL0 Copyright (c) Steve Scherf et al.
# Submitted via: CDex 1.50Beta1
# Normalized: r1:DSETVAR1,TDELIM( - )
#
DISCID=fa0bef10
DTITLE=Various Artist - Ladies sing the Blues CD 2
DYEAR=1900
DGENRE=Jazz
TTITLE0=Ella Fitzgerald - It's only a paper moon
TTITLE1=Anna Larsen and King of Swing Orchestra - Fly me th the moon
TTITLE2=Lilly Thornton and Peter Lehel Quartet - Angel eyes
TTITLE3=Ella Fitzgerald and The Ink Spots - That's the way it is
TTITLE4=Billie Holiday - Trav'lin' light
TTITLE5=Carmen McRae - Imagination
TTITLE6=Anna Larsen and Tony Daniels - I've got a crush on you
TTITLE7=Ella Fitzgerald - For sentimental reason
TTITLE8=Billie Holiday - Gloomy sunday
TTITLE9=Anna Larsen and King of Swing Orchestra - Bei mir bist du scheijn
TTITLE10=Sarah Vaughan - Body and soul
TTITLE11=Anna Larsen and Tony Daniels - Mack the knife
TTITLE12=Ella Fitzgerald and The Ink Spots - I'm beginning to see the light
TTITLE13=Bessie Smith and Louis Armstrong - The Saint Louis blues
TTITLE14=Sarah Vaughan - Sometimes I feel like a motherless child
TTITLE15=Peggy Lee - Fever
EXTD=
EXTT0=
EXTT1=
EXTT2=
EXTT3=
EXTT4=
EXTT5=
EXTT6=
EXTT7=
EXTT8=
EXTT9=
EXTT10=
EXTT11=
EXTT12=
EXTT13=
EXTT14=
EXTT15=
PLAYORDER=
